<svg xmlns="http://www.w3.org/2000/svg" viewBox="0 0 868.43 399.05"><defs><style>.cls-1{fill:#003a5d;}.cls-2{fill:#ff7f30;}.cls-3{fill:#47a3ca;}.cls-4{fill:#00a0df;}</style></defs><g id="Capa_2" data-name="Capa 2"><g id="Capa_1-2" data-name="Capa 1"><path class="cls-1" d="M364.5,139.1a47,47,0,0,0-6.9-4.55c-6.54-3.52-14.38-5.31-23.3-5.31-10.48,0-19.81,2.54-27.73,7.55A51.31,51.31,0,0,0,288.19,157a63.48,63.48,0,0,0,0,55.74,51,51,0,0,0,18.39,20.33c7.92,5,17.25,7.56,27.73,7.56,8.92,0,16.76-1.79,23.3-5.32a48.48,48.48,0,0,0,6.9-4.51v8.26h24.71V130.81H364.5Zm-12.45,17.73a27.62,27.62,0,0,1,9.77,11.54,41.16,41.16,0,0,1,0,33.06A27.44,27.44,0,0,1,352.05,213c-4.18,2.83-9.49,4.26-15.79,4.26s-11.5-1.41-15.95-4.3a28,28,0,0,1-10.22-11.65,39.14,39.14,0,0,1,0-32.9,28.19,28.19,0,0,1,10.23-11.57c4.45-2.89,9.67-4.3,15.95-4.3S347.86,154,352.05,156.83Z"/><path class="cls-1" d="M478.67,134.65a44.92,44.92,0,0,0-21.52-5.41c-8.93,0-16.44,1.92-22.35,5.7a56.44,56.44,0,0,0-5.3,3.85v-8H404.79V239.07H429.5v-61.6a24.9,24.9,0,0,1,3.33-13.08,23.29,23.29,0,0,1,8.86-8.71,25,25,0,0,1,12.51-3.1c6.75,0,12.05,2.15,16.22,6.58s6.31,10.45,6.31,18.11v61.8h24.72V176.88c0-10.16-2.12-18.91-6.29-26A42.4,42.4,0,0,0,478.67,134.65Z"/><path class="cls-1" d="M592.7,139.1a46,46,0,0,0-6.9-4.55c-6.54-3.52-14.38-5.31-23.3-5.31-10.48,0-19.81,2.54-27.72,7.55A51.23,51.23,0,0,0,516.4,157a63.48,63.48,0,0,0,0,55.74,51,51,0,0,0,18.38,20.33c7.92,5,17.25,7.56,27.73,7.56,8.92,0,16.76-1.79,23.31-5.32a47.82,47.82,0,0,0,6.89-4.51v8.26h24.72V91.5H592.7Zm-12.45,17.73A27.55,27.55,0,0,1,590,168.37a41.05,41.05,0,0,1,0,33.06A27.35,27.35,0,0,1,580.26,213c-4.19,2.83-9.5,4.26-15.79,4.26s-11.5-1.41-16-4.3a28.06,28.06,0,0,1-10.21-11.65,39.09,39.09,0,0,1,0-32.9,28.33,28.33,0,0,1,10.23-11.57c4.46-2.89,9.68-4.3,16-4.3S576.07,154,580.25,156.83Z"/><rect class="cls-1" x="633" y="130.81" width="24.71" height="108.25"/><rect class="cls-1" x="632.41" y="95.04" width="25.89" height="29.23"/><polygon class="cls-1" points="773.24 130.81 738.28 130.81 698 172.26 698 91.5 673.29 91.5 673.29 239.06 698 239.06 698 205.1 710.79 192.45 743.29 239.06 773.65 239.06 728.05 175.1 773.24 130.81"/><path class="cls-1" d="M843.71,130.81v8.29a46,46,0,0,0-6.9-4.55c-6.54-3.52-14.38-5.31-23.3-5.31-10.48,0-19.81,2.54-27.73,7.55A51.31,51.31,0,0,0,767.4,157a63.53,63.53,0,0,0,0,55.74,51,51,0,0,0,18.38,20.33c7.92,5,17.25,7.56,27.73,7.56,8.92,0,16.76-1.79,23.3-5.32a47.37,47.37,0,0,0,6.9-4.51v8.26h24.72V130.81Zm.79,54.13A39.12,39.12,0,0,1,841,201.43,27.37,27.37,0,0,1,831.26,213c-4.18,2.83-9.49,4.26-15.78,4.26s-11.51-1.41-16-4.3a28.15,28.15,0,0,1-10.22-11.65,39.14,39.14,0,0,1,0-32.9,28.26,28.26,0,0,1,10.23-11.57c4.46-2.89,9.68-4.3,16-4.3s11.6,1.43,15.78,4.25A27.55,27.55,0,0,1,841,168.37,39,39,0,0,1,844.5,184.94Z"/><path class="cls-2" d="M379.77,274.44q11.44-9.53,30.15-9.52,12.76,0,21.85,4.45a31.25,31.25,0,0,1,18.36,29.28q0,11-5.69,18.62a27.75,27.75,0,0,1-13.54,10.22v.7a29.41,29.41,0,0,1,15.82,11.19q5.67,8,5.68,20.63a36.39,36.39,0,0,1-4.81,18.7,32.66,32.66,0,0,1-14.16,12.85q-9.35,4.63-22.46,4.63-19.75,0-32.16-10T365.7,356.86h23.77q.34,8.56,5.86,13.72t15.12,5.16q8.91,0,13.72-5A17.78,17.78,0,0,0,429,357.91q0-10.49-6.65-15t-20.62-4.55h-5.07v-20.1h5.07q24.81,0,24.82-16.61,0-7.5-4.46-11.71t-12.85-4.19q-8.22,0-12.67,4.46a18,18,0,0,0-5.16,11.27H367.45Q368.32,284,379.77,274.44Z"/><path class="cls-2" d="M545.69,272.59a58.18,58.18,0,0,1,24.41,23.18q8.6,15,8.6,34.9t-8.6,34.72a58.52,58.52,0,0,1-24.41,23q-15.8,8.14-36.61,8.14H462.92V264.45h46.16Q529.9,264.45,545.69,272.59Zm-5.39,90.05q11.36-11.34,11.35-32T540.3,298.41q-11.35-11.62-32.16-11.63H489.41V374h18.73Q528.94,374,540.3,362.64Z"/><path class="cls-3" d="M250.12,83H250s0,0,0,0Z"/><path class="cls-3" d="M248.91,86.72c.61.39,1.25.75,1.88,1.1A10.06,10.06,0,0,0,248.91,86.72Z"/><path class="cls-3" d="M250,82.9l.11,0H250S250,82.92,250,82.9Z"/><path class="cls-3" d="M250.8,87.82c-.65-.35-1.28-.71-1.89-1.1A9.92,9.92,0,0,1,250.8,87.82Z"/><path class="cls-4" d="M118,300.46A114.31,114.31,0,0,1,112.55,227,127.16,127.16,0,0,0,118,300.46Z"/><ellipse class="cls-1" cx="188.96" cy="76.5" rx="14.52" ry="14.64" transform="translate(1.26 156.03) rotate(-45)"/><path class="cls-4" d="M164.81,398.29A130.79,130.79,0,0,1,120,144.63,8.72,8.72,0,0,1,126,161a113.34,113.34,0,0,0,38.82,219.82,8.73,8.73,0,1,1,0,17.45Z"/><path class="cls-4" d="M365,96.61a3.72,3.72,0,0,1-.4,1.72,3.53,3.53,0,0,1-.9,1.06,3.21,3.21,0,0,1-.4.3,3.76,3.76,0,0,1-1.23.45L249.37,113.86l-3.85.63-4.29.69c-.76.18-1.51.34-2.24.5l-2,.46a62.76,62.76,0,0,0-26.54-5.83c-1.63,0-3.25.06-4.86.19l3.84-.41,20.72-2.2a17,17,0,0,0,13.16-25.1,17.48,17.48,0,0,0-1.5-2.27c-.18-.22-.37-.46-.57-.69a22.34,22.34,0,0,1-1.63-2.23c-.4-.58-.76-1.18-1.11-1.79s-.53-1-.79-1.47C229.53,59.49,215.8,46.63,198,38.85c-38.37-16.74-81.16-3.54-95.56,29.51-8.87,20.29-4.93,43.36,8.35,62a6,6,0,0,1-5.92,9.32,141.41,141.41,0,0,1-45.46-16.94l0,0c-.47-.28-1-.56-1.43-.86a49.72,49.72,0,0,1-23.79-44.4c0-.87,0-1.75,0-2.64A84.62,84.62,0,0,0,1.74,8.19,4.6,4.6,0,0,1,4.63,0L174.11.09A75.22,75.22,0,0,1,247.8,60h0c.13.86.3,1.72.49,2.57a28.79,28.79,0,0,0,22.57,22.31,38.16,38.16,0,0,0,4.08.72l1.33.1,86.2,7.59a3.06,3.06,0,0,1,.86.39,3.3,3.3,0,0,1,.65.52A3.41,3.41,0,0,1,365,96.61Z"/><path class="cls-2" d="M237,116.14c-7.63,1.76-13.84,3.51-20.85,7.35-7.57,4.12-11.87,8.31-16.05,12.35a71.29,71.29,0,0,1-7,6.25,36.58,36.58,0,0,1-7.3,4.34,44,44,0,0,1-18.32,3.72,65.09,65.09,0,0,1-13.22-1.45,1.21,1.21,0,0,1-.84-.68.67.67,0,0,1-.07-.24,1.3,1.3,0,0,1,.13-.82c.27-.45.53-.88.8-1.31a60.35,60.35,0,0,1,11.58-16.89,3.63,3.63,0,0,1,.34-.34,60.12,60.12,0,0,1,35-17.45h.1l.51,0c1.25-.19,2.5-.31,3.78-.41h0c1.61-.13,3.23-.19,4.86-.19A62.76,62.76,0,0,1,237,116.14Z"/><path class="cls-4" d="M342,345.82c-.78-2-1.55-3.89-2.35-5.8,0-.13-.11-.26-.16-.4l.13,0q-1.58-3.9-3.21-7.68c-.89-2.1-1.79-4.18-2.7-6.22q-4-9-8.08-17.45l-.82-1.71A528.29,528.29,0,0,0,283,235.46c-21.05-30.05-38.38-48-53-58.82-1.77-1.33-3.51-2.54-5.21-3.67-11.61-7.67-21.42-10.85-30-12.47l-1.83-.35c-6.35-1.17-14.1-2.27-22.81-.63a48.61,48.61,0,0,0-5.91,1.53,52.65,52.65,0,0,0-18.81,11.11c-1.16,1.08-2.31,2.19-3.41,3.29l-.73.76A113.76,113.76,0,0,0,112.55,227a126.83,126.83,0,0,0-3.06,27.76q0,6.11.57,12.06a125.4,125.4,0,0,0,8,34.06A126.9,126.9,0,0,0,185,371a192.46,192.46,0,0,0,24.1,12.57c17.93,7.68,45.12,15.46,71.14,15.46,20,0,39.24-4.58,53.09-17.32.6-.55,1.18-1.11,1.77-1.7l.2-.2a31.26,31.26,0,0,0,5.81-8.24A32.07,32.07,0,0,0,342,345.82Zm-9.88,21.42a21.63,21.63,0,0,1-3.83,5.48c-.13.12-.24.24-.34.34-.46.45-.91.89-1.39,1.33-10.6,9.75-26.19,14.69-46.34,14.69-18.07,0-35.4-3.9-48.24-7.81,1.35,0,2.71.07,4.07.07a126.37,126.37,0,0,0,46.77-8.91,127,127,0,0,1-70.17-69.1,126.64,126.64,0,0,0,114.83,39l2.16-.39c.25.62.52,1.23.77,1.85l0,.05,0,.06c.83,2,1.61,3.94,2.28,5.62A22.14,22.14,0,0,1,332.12,367.24Z"/></g></g></svg>